<svg xmlns="http://www.w3.org/2000/svg" xmlns:xlink="http://www.w3.org/1999/xlink" width="1920" zoomAndPan="magnify" viewBox="0 0 1440 809.999993" height="1080" preserveAspectRatio="xMidYMid meet" version="1.0"><defs><clipPath id="738b1b7707"><path d="M 632 1 L 1440 1 L 1440 809.972656 L 632 809.972656 Z M 632 1 " clip-rule="nonzero"/></clipPath><clipPath id="66a3087305"><path d="M 928 299 L 1439.179688 299 L 1439.179688 809.96875 L 928 809.96875 Z M 928 299 " clip-rule="nonzero"/></clipPath></defs><path fill="#149acf" d="M 652.714844 789.78125 L 1422.554688 789.78125 L 1422.554688 19.941406 Z M 652.714844 789.78125 " fill-opacity="1" fill-rule="nonzero"/><g clip-path="url(#738b1b7707)"><path fill="#149acf" d="M 1440.222656 19.941406 L 1440.222656 789.78125 C 1440.222656 802.402344 1432.652344 809.972656 1422.554688 809.972656 L 652.714844 809.972656 C 645.144531 809.972656 637.570312 804.925781 635.046875 797.355469 C 630 792.304688 632.523438 782.210938 637.570312 777.160156 L 1407.410156 7.324219 C 1412.460938 2.273438 1420.03125 -0.25 1427.605469 2.273438 C 1435.175781 7.324219 1440.222656 12.371094 1440.222656 19.941406 Z M 1402.363281 772.113281 L 1402.363281 67.898438 L 698.148438 772.113281 Z M 1402.363281 772.113281 " fill-opacity="1" fill-rule="nonzero"/></g><path fill="#67bedd" d="M 941.804688 797.214844 L 1428.019531 797.214844 L 1428.019531 311.003906 Z M 941.804688 797.214844 " fill-opacity="1" fill-rule="nonzero"/><g clip-path="url(#66a3087305)"><path fill="#67bedd" d="M 1439.179688 311.003906 L 1439.179688 797.214844 C 1439.179688 805.1875 1434.394531 809.96875 1428.019531 809.96875 L 941.804688 809.96875 C 937.023438 809.96875 932.238281 806.78125 930.644531 802 C 927.457031 798.808594 929.050781 792.433594 932.238281 789.246094 L 1418.453125 303.03125 C 1421.640625 299.84375 1426.425781 298.25 1431.207031 299.84375 C 1435.988281 303.03125 1439.179688 306.21875 1439.179688 311.003906 Z M 1415.265625 786.058594 L 1415.265625 341.289062 L 970.5 786.058594 Z M 1415.265625 786.058594 " fill-opacity="1" fill-rule="nonzero"/></g></svg>